<?xml version="1.0"?>
<!--Icons from directory ""-->
<svg xmlns="http://www.w3.org/2000/svg" width="16" height="32" viewBox="0 0 16 32"><svg xmlns:xlink="http://www.w3.org/1999/xlink" id="web_HeartAsset-01" style="enable-background:new 0 0 16 16" xml:space="preserve" height="16" viewBox="0 0 16 16" width="16" version="1.1" y="0" x="0px"><style type="text/css">	.st0{fill:#0654BA;}</style><path class="st0" d="m11.8 0.9c-1.6 0-3 1.1-3.8 1.9-0.8-0.7-2.2-1.9-3.8-1.9-2.2-0.1-4.2 1.7-4.2 4.1 0 3 3 5.7 7.1 9.5l0.6 0.5s0.2 0.1 0.3 0.1 0.3-0.1 0.4-0.1l0.6-0.5c4-3.8 7-6.5 7-9.5 0-2.4-2-4.2-4.2-4.1z"/></svg><svg xmlns:xlink="http://www.w3.org/1999/xlink" id="web_HeartAsset-02" style="enable-background:new 0 0 16 16" xml:space="preserve" height="16" viewBox="0 0 16 16" width="16" version="1.1" y="16" x="0px"><style type="text/css">	.st0{fill:#0654BA;}</style><path class="st0" d="m11.8 0.9c-1.6 0-3 1.1-3.8 1.9-0.8-0.7-2.2-1.9-3.8-1.9-2.2-0.1-4.2 1.7-4.2 4.1 0 3 3 5.7 7.1 9.5l0.6 0.5s0.2 0.1 0.3 0.1 0.3-0.1 0.4-0.1l0.6-0.5c4-3.8 7-6.5 7-9.5 0-2.4-2-4.2-4.2-4.1zm-3.6 12.7l-0.2 0.1-0.2-0.1c-3.9-3.5-6.7-6.1-6.7-8.6 0-1.7 1.4-3 3-2.9 1.4 0 2.9 1.3 3.4 2 0.2 0.1 0.3 0.2 0.5 0.2s0.3-0.1 0.5-0.2c0.5-0.6 2-2 3.4-2 1.6-0.1 3 1.2 3 2.9 0 2.5-2.8 5.1-6.7 8.6z"/></svg></svg>
